# MAAS exact compiled indexed mesh
# program_hash 09d27bdd697c288a49ae8de8734cc2ee69b0e88e51e88f46d9418889e3c9c35f
# geometry_hash e7ba666451696cc3a88aca436f748fa9e38e23794a8b07a3ce97322a3b128f4b
v -7.27803928 -7.04656983 0
v -7.27803928 -5.32751759 0
v -7.10611784 -5.32751759 2.37854009
v -6.70344956 -7.5777151 4.125
v -6.88054395 -5.32751759 4.125
v -6.65587741 -5.32751759 7.22368894
v -3.75475437 -7.04656983 0
v -0.23146946 -7.04656983 0
v -3.19102576 -7.30128135 4.125
v -6.52207977 -5.32751759 8.25
v -6.08895793 -8.06214124 8.25
v -6.24610245 -5.32751759 12.02114956
v -5.43835294 -8.4968616 12.375
v -4.75564578 -8.87919598 16.5
v -6.19924512 -5.32751759 12.375
v -6.02724323 -5.32751759 14.68890307
v -5.84440069 -5.5283529 16.5
v -5.90965604 -5.32751759 16.5
v -2.6090505 -7.51097805 8.25
v -2.01241667 -7.67436707 12.375
v -1.4048027 -7.79044106 16.5
v -7.27803928 5.32751759 0
v -7.60303376 5.32751759 2.5239841
v -7.27803928 7.04656983 0
v -7.7191134 5.32751759 4.125
v -7.80918456 6.47198011 4.125
v -8.15446541 5.32751759 7.49562419
v -3.75475437 7.04656983 0
v -0.23146946 7.04656983 0
v -4.29676075 6.74841385 4.125
v -0.78433695 7.0248476 4.125
v -8.20967155 5.32751759 8.25
v -8.29361069 5.85748848 8.25
v -8.64772592 5.32751759 11.61014931
v -4.81370327 6.40865167 8.25
v -8.22585385 5.32751759 12.375
v -7.84640674 5.32751759 13.60051024
v -6.63823525 5.32751759 16.5
v -5.30239478 6.02937801 12.375
v -5.75982236 5.61293124 16.5
v -1.33379584 6.95981486 8.25
v -2.40897928 6.70168615 16.5
v -1.87645851 6.85187254 12.375
v 3.29181546 -7.04656983 0
v 0.32139804 -7.0248476 4.125
v 3.83382184 -6.74841385 4.125
v 5.09604813 -5.32751759 0
v 6.81510037 -7.04656983 0
v 7.34624564 -6.47198011 4.125
v 6.81510037 -3.52328491 0
v 7.06981189 -2.9595563 4.125
v 0.87085692 -6.95981486 8.25
v 1.4135196 -6.85187254 12.375
v 1.94604037 -6.70168615 16.5
v 4.35076435 -6.40865167 8.25
v 7.83067178 -5.85748848 8.25
v 4.83945587 -6.02937801 12.375
v 5.29688345 -5.61293124 16.5
v 5.09604813 -5.32751759 16.5
v 8.26539214 -5.20688348 12.375
v 8.64772652 -4.52417632 16.5
v 7.27950859 -2.37758105 8.25
v 7.44289761 -1.78094721 12.375
v 7.55897161 -1.17333325 16.5
v 3.29181546 7.04656983 0
v 2.72808685 7.30128135 4.125
v 6.81510037 0 0
v 6.81510037 3.52328491 0
v 6.79337815 0.5528675 4.125
v 6.5169444 4.0652913 4.125
v 5.09604813 5.32751759 0
v 6.81510037 7.04656983 0
v 6.24051065 7.5777151 4.125
v 2.14611159 7.51097805 8.25
v 1.54947776 7.67436707 12.375
v 0.94186379 7.79044106 16.5
v 4.29270687 8.87919598 16.5
v 6.7283454 1.10232638 8.25
v 6.47021669 2.17750983 16.5
v 6.62040308 1.64498906 12.375
v 6.17718221 4.58223381 8.25
v 5.62601902 8.06214124 8.25
v 5.79790856 5.07092533 12.375
v 5.09604813 5.32751759 16.5
v 5.38146178 5.5283529 16.5
v 4.97541403 8.4968616 12.375
f 1 3 2
f 1 4 3
f 4 5 3
f 1 7 4
f 4 7 9
f 4 6 5
f 4 9 11
f 4 11 6
f 11 10 6
f 7 8 9
f 1 2 47
f 9 8 45
f 1 47 7
f 9 19 11
f 9 45 19
f 19 45 52
f 11 19 13
f 11 13 12
f 11 12 10
f 13 15 12
f 13 14 17
f 13 16 15
f 13 17 16
f 17 18 16
f 17 21 18
f 13 19 20
f 19 52 20
f 13 20 14
f 14 21 17
f 14 20 21
f 20 53 21
f 21 54 18
f 24 22 23
f 26 23 25
f 24 23 26
f 24 28 22
f 24 30 28
f 24 26 30
f 26 25 27
f 33 27 32
f 26 27 33
f 26 33 35
f 26 35 30
f 28 29 22
f 28 30 31
f 29 65 22
f 28 31 29
f 30 35 41
f 30 41 31
f 33 32 34
f 33 34 39
f 39 34 36
f 33 39 35
f 39 36 37
f 40 37 38
f 39 37 40
f 39 40 42
f 35 39 43
f 35 43 41
f 41 43 75
f 39 42 43
f 40 38 84
f 40 84 42
f 43 42 76
f 8 44 45
f 7 47 8
f 44 46 45
f 8 47 44
f 45 46 52
f 46 55 52
f 44 48 46
f 46 48 49
f 44 47 48
f 48 47 50
f 48 50 49
f 46 49 55
f 49 51 56
f 49 56 55
f 50 47 71
f 49 50 51
f 50 67 51
f 51 67 69
f 51 62 56
f 51 69 62
f 62 69 78
f 20 52 53
f 52 55 53
f 53 55 57
f 21 53 54
f 54 59 18
f 53 57 54
f 54 57 58
f 54 58 59
f 55 56 57
f 56 62 60
f 56 60 57
f 57 60 58
f 58 61 59
f 58 60 61
f 60 62 63
f 62 78 63
f 64 79 59
f 60 63 61
f 61 64 59
f 61 63 64
f 63 80 64
f 65 72 22
f 72 71 22
f 29 66 65
f 31 66 29
f 65 66 73
f 31 74 66
f 31 41 74
f 66 74 82
f 50 71 67
f 67 71 68
f 67 68 69
f 68 70 69
f 70 81 78
f 69 70 78
f 68 71 72
f 65 73 72
f 68 72 70
f 70 72 73
f 70 73 81
f 66 82 73
f 73 82 81
f 41 75 74
f 74 86 82
f 74 75 86
f 42 84 76
f 43 76 75
f 76 84 85
f 75 77 86
f 75 76 77
f 76 85 77
f 80 81 83
f 63 78 80
f 78 81 80
f 85 84 59
f 79 85 59
f 80 83 79
f 79 83 85
f 64 80 79
f 81 82 83
f 82 86 83
f 83 86 85
f 85 86 77
f 3 47 2
f 5 47 3
f 5 6 47
f 10 47 6
f 10 12 59
f 15 59 12
f 15 16 59
f 16 18 59
f 25 23 22
f 25 22 71
f 25 71 27
f 32 27 84
f 32 84 34
f 34 84 36
f 36 84 37
f 38 37 84
f 71 47 59
f 10 59 47
f 27 71 84
f 71 59 84
