# MAAS exact compiled indexed mesh
# program_hash f108201b896a4df0479d21314d1a04d4bacb27feebf33f0da1e48fb0241f5d2a
# geometry_hash 86bb271ffc8e951ff75d813c98fdf4742bc5938970ecc30f4d49c291923dabe1
v -3.76599635 -3.76599635 0
v -3.76599635 -1.55992676 0
v -1.55992676 -3.76599635 0
v -3.76599635 -3.76599635 16.5
v -3.76599635 -1.55992676 16.5
v -1.55992676 -3.76599635 16.5
v -5.32592311 0 0
v -3.76599635 1.55992676 0
v -3.76599635 3.76599635 0
v -1.55992676 3.76599635 0
v -5.32592311 0 16.5
v -3.76599635 0 16.5
v -3.76599635 1.55992676 16.5
v -3.76599635 3.76599635 16.5
v -1.55992676 3.76599635 16.5
v 0 -5.32592311 0
v 1.55992676 -3.76599635 0
v 3.76599635 -3.76599635 0
v 2.66296156 -2.66296156 0
v 3.76599635 -1.55992676 0
v 0 -5.32592311 16.5
v 1.55992676 -3.76599635 16.5
v 3.76599635 -3.76599635 16.5
v 3.76599635 -1.55992676 16.5
v 0 5.32592311 0
v 1.55992676 3.76599635 0
v 3.76599635 1.55992676 0
v 5.32592311 0 0
v 3.76599635 3.76599635 0
v 0 5.32592311 16.5
v 1.55992676 3.76599635 16.5
v 3.76599635 0 16.5
v 3.76599635 1.55992676 16.5
v 5.32592311 0 16.5
v 3.76599635 3.76599635 16.5
f 1 2 3
f 1 4 2
f 1 3 6
f 1 6 4
f 4 6 5
f 2 4 5
f 5 6 22
f 5 23 12
f 12 23 13
f 8 13 9
f 8 9 10
f 9 14 10
f 9 13 14
f 13 23 14
f 10 14 15
f 14 33 15
f 17 19 18
f 17 18 23
f 18 19 20
f 18 20 24
f 17 23 22
f 5 22 23
f 14 23 24
f 18 24 23
f 26 31 29
f 26 29 27
f 27 29 35
f 14 24 32
f 14 32 33
f 15 33 31
f 27 35 33
f 29 31 35
f 31 33 35
f 2 11 7
f 2 17 3
f 3 16 6
f 2 7 17
f 7 19 17
f 2 5 11
f 5 12 11
f 6 16 21
f 7 13 8
f 7 8 28
f 10 30 25
f 7 11 13
f 11 12 13
f 10 15 30
f 3 17 16
f 16 17 21
f 7 20 19
f 7 28 20
f 20 28 24
f 17 22 21
f 6 21 22
f 24 28 34
f 24 34 32
f 8 10 28
f 10 27 28
f 10 26 27
f 10 25 26
f 25 31 26
f 27 34 28
f 25 30 31
f 15 31 30
f 27 33 34
f 32 34 33
