# MAAS exact compiled indexed mesh
# program_hash 3fa1bbde8fc705791ba72e27fdeb989deddf85fb7e5db826c5b4cc80fa4388bf
# geometry_hash 8850596bc7c467ffd80563289ac697a8d6ac8fc3f9958f0262da8102e50d659e
v -12.18074536 -6.1170303 0
v -7.06404817 -6.1170303 0
v -7.06404817 -3.41340814 1.86090226
v -12.18074536 -6.1170303 3.72180451
v -9.62239677 -3.5586817 3.72180451
v -7.06404817 -6.1170303 3.72180451
v -7.06404817 -3.41340814 3.72180451
v -12.18074536 -1.00033311 0
v -9.62239677 -1.00033311 1.86090226
v -9.62239677 -0.05976378 1.86090226
v -7.06404817 -2.78765303 1.86090226
v -7.06404817 -2.24710217 1.86090226
v -7.06404817 -1.63459309 1.86090226
v -7.06404817 -1.00033311 0
v -7.06404817 -1.08079619 1.86090226
v -7.06404817 -1.00033311 1.86090226
v -12.18074536 -1.00033311 3.72180451
v -9.62239677 -1.00033311 3.72180451
v -9.62239677 -0.05976378 3.72180451
v -4.10244025 -3.24523586 1.86090226
v -3.03292545 -3.0614596 4.47609023
v -4.23446983 -2.08642706 1.86090226
v -4.36649941 -0.92761827 1.86090226
v -1.66889011 -2.97139502 4.47609023
v -9.62239677 -3.5586817 5.58270677
v -9.62239677 -3.5586817 7.44360902
v -9.62239677 -3.5586817 9.30451128
v -9.62239677 -2.39237573 5.58270677
v -9.62239677 -1.22606975 5.58270677
v -9.62239677 -0.05976378 5.58270677
v -9.62239677 -2.39237573 7.44360902
v -9.62239677 -2.39237573 9.30451128
v -9.62239677 -1.22606975 7.44360902
v -9.62239677 -0.05976378 7.44360902
v -9.62239677 -1.22606975 9.30451128
v -9.62239677 -0.05976378 9.30451128
v -3.03292545 -3.0614596 7.28481203
v -4.10244025 -3.24523586 7.44360902
v -4.10244025 -3.24523586 9.30451128
v -1.66889011 -2.97139502 5.88045113
v -2.34016821 -2.94242214 7.28481203
v -1.66889011 -2.97139502 7.28481203
v -0.99155935 -2.83606164 7.25503759
v -0.99155935 -2.83606164 7.28481203
v -3.20970867 -3.01100004 9.30451128
v -3.20970867 -3.01100004 9.9
v -4.23446983 -2.08642706 9.30451128
v -3.20970867 -1.84469406 9.9
v -4.36649941 -0.92761827 9.30451128
v -3.20970867 -0.67838808 9.9
v -2.34016821 -2.94242214 9.30451128
v -9.62239677 1.1065422 1.86090226
v -9.62239677 1.1065422 3.72180451
v -6.41605272 1.28861161 4.47609023
v -6.41605272 1.38038303 4.47609023
v -4.63055858 1.38999931 1.86090226
v -4.498529 0.23119052 1.86090226
v -4.63055858 1.38999931 4.47609023
v -3.60718491 1.56584707 4.47609023
v -9.62239677 1.1065422 5.58270677
v -6.41605272 1.38038303 5.88045113
v -6.41605272 1.28861161 7.28481203
v -6.41605272 1.38038303 7.28481203
v -9.62239677 1.1065422 7.44360902
v -9.62239677 1.1065422 9.30451128
v -4.63055858 1.38999931 7.28481203
v -3.60718491 1.56584707 7.28481203
v -3.20970867 1.63414598 7.25503759
v -3.20970867 1.65422387 7.25503759
v -2.99373521 1.67125701 7.25503759
v -4.63055858 1.38999931 7.44360902
v -4.63055858 1.38999931 9.30451128
v -4.498529 0.23119052 9.30451128
v -3.20970867 0.48791789 9.9
v -3.20970867 1.65422387 8.03909774
v -3.20970867 1.63414598 9.30451128
v -3.20970867 1.65422387 9.9
v -2.99373521 1.67125701 9.30451128
v 1.34655012 -2.30892807 1.86090226
v 1.08418836 -1.17251444 1.86090226
v 0.8218266 -0.03610081 1.86090226
v 1.34655012 -2.30892807 3.72180451
v 1.34655012 -2.30892807 4.47609023
v 3.0172416 -2.03508723 4.47609023
v 6.65452054 -0.76179578 1.86090226
v 6.65452054 -0.76179578 3.72180451
v 6.65452054 -0.76179578 4.47609023
v 7.58209617 -0.48795494 4.47609023
v 3.0172416 -2.03508723 5.88045113
v 0.76466002 -2.69755419 7.25503759
v 3.0172416 -2.03508723 7.25503759
v 4.68793309 -1.7612464 7.25503759
v 0.76466002 -2.69755419 8.03909774
v 0.76466002 -2.69755419 9.9
v 0.66959872 -1.5387454 9.9
v 0.57453742 -0.3799366 9.9
v 4.68793309 -1.7612464 8.03909774
v 4.68793309 -1.7612464 9.9
v 4.49903262 -0.62483277 9.9
v 7.58209617 -0.48795494 5.88045113
v 7.58209617 -0.48795494 7.25503759
v 8.50967179 -0.21411411 7.25503759
v 8.50967179 -0.21411411 8.03909774
v 8.50967179 -0.21411411 9.9
v 0.55946485 1.10031282 1.86090226
v 0.29710309 2.23672645 1.86090226
v 5.87587867 1.43702103 1.86090226
v 5.48655774 2.53642943 1.86090226
v 5.0972368 3.63583784 1.86090226
v 5.0972368 3.63583784 3.72180451
v 6.26519961 0.33761263 1.86090226
v 11.75323021 1.37627063 1.86090226
v 11.24195533 2.4245395 1.86090226
v 9.26855221 0.33435867 4.47609023
v 9.26855221 0.33435867 4.50586466
v 11.75323021 1.37627063 3.72180451
v 11.68639803 1.51329692 4.47609023
v 11.75323021 1.37627063 4.50586466
v 11.96698648 1.65011147 4.47609023
v 9.70813066 5.5693461 1.86090226
v 10.21940555 4.52107723 3.72180451
v 10.21940555 4.52107723 3.91674648
v 10.73068044 3.47280837 3.98468748
v 10.73068044 3.47280837 4.47609023
v 9.70813066 5.5693461 3.72180451
v 9.26855221 5.38501556 4.47609023
v 9.70813066 5.5693461 4.47609023
v 10.20820087 5.84318694 4.47609023
v 0.29710309 2.23672645 5.58270677
v 0.47947612 0.77887219 9.9
v 0.29710309 2.23672645 7.44360902
v 0.29710309 2.23672645 9.30451128
v 0.38441482 1.93768098 9.30451128
v 0.38441482 1.93768098 9.9
v 4.31013215 0.51158086 9.9
v 4.12123169 1.64799449 9.9
v 3.93233122 2.78440812 9.30451128
v 3.93233122 2.78440812 9.9
v 5.0972368 3.63583784 5.58270677
v 5.0972368 3.63583784 7.44360902
v 5.0972368 3.63583784 9.30451128
v 11.75323021 1.37627063 5.58270677
v 9.26855221 0.33435867 7.25503759
v 9.92158848 0.60819951 7.25503759
v 11.68639803 1.51329692 7.28481203
v 11.96698648 1.65011147 5.88045113
v 11.52729008 2.69838033 5.88045113
v 11.63977528 1.60888773 7.28481203
v 11.96698648 1.65011147 7.28481203
v 11.91664164 1.77013732 7.25503759
v 11.91664164 1.77013732 7.28481203
v 12.18074275 1.9239523 7.25503759
v 8.22936072 0.88529429 9.9
v 7.94904964 1.9847027 9.9
v 11.75323021 1.37627063 7.44360902
v 9.92158848 0.60819951 9.30451128
v 11.75323021 1.37627063 9.30451128
v 12.18074275 1.9239523 8.03909774
v 11.81262483 2.97222117 8.03909774
v 11.63977528 1.60888773 9.30451128
v 12.18074275 1.9239523 9.9
v 11.81262483 2.97222117 9.9
v 11.08759368 3.7466492 5.88045113
v 10.64789727 4.79491807 5.88045113
v 10.20820087 5.84318694 5.88045113
v 9.26855221 5.38501556 7.28481203
v 9.72135259 5.54223712 7.28481203
v 9.70813066 5.5693461 7.28481203
v 10.21406801 5.82919924 7.25503759
v 10.21406801 5.82919924 7.28481203
v 10.20820087 5.84318694 7.28481203
v 10.70827108 6.11702777 7.25503759
v 7.3884275 4.18351951 9.30451128
v 7.3884275 4.18351951 9.9
v 7.66873857 3.0841111 9.9
v 11.44450692 4.02049004 8.03909774
v 11.44450692 4.02049004 9.9
v 9.70813066 5.5693461 7.44360902
v 11.076389 5.0687589 8.03909774
v 10.70827108 6.11702777 8.03909774
v 9.72135259 5.54223712 9.30451128
v 9.70813066 5.5693461 9.30451128
v 11.076389 5.0687589 9.9
v 10.70827108 6.11702777 9.9
f 22 11 12
f 23 13 15
f 10 57 23
f 22 20 11
f 22 13 23
f 22 80 79
f 23 81 80
f 57 105 81
f 80 111 85
f 82 86 83
f 82 85 86
f 86 116 87
f 81 107 111
f 105 108 107
f 111 113 112
f 87 116 114
f 114 118 115
f 114 116 118
f 109 110 125
f 123 122 124
f 123 121 122
f 124 122 127
f 125 127 122
f 43 90 44
f 45 46 48
f 45 48 50
f 45 50 74
f 45 74 77
f 41 44 51
f 44 90 51
f 90 93 51
f 46 51 93
f 45 51 46
f 46 94 48
f 46 93 94
f 48 94 95
f 48 95 50
f 50 96 74
f 95 96 50
f 45 77 76
f 69 75 70
f 68 76 69
f 69 76 75
f 70 75 78
f 75 76 77
f 75 77 78
f 74 130 77
f 74 96 130
f 130 134 77
f 78 77 134
f 78 134 133
f 90 92 93
f 93 97 94
f 94 98 95
f 95 99 96
f 93 92 97
f 94 97 98
f 92 102 97
f 97 103 98
f 95 98 99
f 96 99 135
f 98 104 99
f 97 102 103
f 98 103 104
f 96 135 130
f 130 136 134
f 130 135 136
f 133 134 138
f 134 136 138
f 133 138 137
f 99 153 135
f 135 154 136
f 138 136 175
f 137 138 174
f 150 152 151
f 102 156 103
f 99 104 153
f 135 153 154
f 103 156 104
f 136 154 175
f 154 177 175
f 102 144 156
f 104 156 160
f 104 161 153
f 104 160 161
f 148 151 160
f 151 152 160
f 152 158 160
f 158 159 161
f 153 162 154
f 154 162 177
f 158 161 160
f 153 161 162
f 161 159 162
f 169 170 172
f 138 175 174
f 137 174 173
f 175 183 174
f 173 174 184
f 152 172 158
f 158 172 159
f 159 176 162
f 159 172 176
f 176 179 177
f 175 177 183
f 162 176 177
f 167 181 170
f 170 180 172
f 170 181 180
f 172 179 176
f 172 180 179
f 180 183 179
f 173 184 181
f 174 183 184
f 180 181 184
f 177 179 183
f 180 184 183
f 21 24 40
f 24 84 40
f 21 40 42
f 21 42 37
f 40 89 42
f 42 43 44
f 55 61 59
f 54 62 55
f 55 62 61
f 61 62 63
f 59 61 63
f 59 63 67
f 84 88 89
f 40 84 89
f 42 89 43
f 43 89 91
f 88 100 89
f 89 101 91
f 89 100 101
f 88 115 100
f 100 143 101
f 88 114 115
f 117 119 146
f 119 128 146
f 115 143 100
f 117 146 149
f 117 149 145
f 146 147 149
f 149 150 151
f 149 147 163
f 128 147 146
f 128 163 147
f 149 163 164
f 149 165 150
f 149 164 165
f 150 165 169
f 128 164 163
f 126 166 128
f 128 165 164
f 128 166 165
f 166 171 165
f 165 171 169
f 169 171 170
f 25 5 7
f 25 7 20
f 22 12 13
f 10 16 9
f 23 15 16
f 10 23 16
f 30 18 5
f 10 9 18
f 10 18 19
f 19 18 30
f 20 3 11
f 20 7 3
f 20 21 38
f 22 79 20
f 22 23 80
f 23 57 81
f 20 83 21
f 20 79 82
f 20 82 83
f 25 28 5
f 25 26 31
f 25 20 26
f 26 27 32
f 26 38 27
f 27 39 32
f 28 29 5
f 29 30 5
f 25 31 28
f 28 33 29
f 28 31 33
f 29 33 34
f 29 34 30
f 26 32 31
f 31 35 33
f 31 32 35
f 33 36 34
f 33 35 36
f 32 47 35
f 35 49 36
f 36 49 73
f 20 38 26
f 21 37 38
f 37 41 38
f 27 38 39
f 38 51 39
f 39 51 45
f 32 39 47
f 47 39 45
f 47 45 49
f 35 47 49
f 49 45 73
f 73 45 72
f 38 41 51
f 10 52 57
f 52 56 57
f 10 53 52
f 10 19 53
f 19 60 53
f 52 53 56
f 53 54 56
f 57 56 105
f 105 56 106
f 56 54 58
f 56 58 59
f 56 129 106
f 56 59 129
f 19 30 60
f 30 64 60
f 30 34 64
f 53 60 62
f 53 62 54
f 60 64 62
f 64 71 62
f 34 65 64
f 34 36 65
f 64 72 71
f 36 73 65
f 64 65 72
f 65 73 72
f 62 71 66
f 66 71 67
f 59 68 70
f 59 67 76
f 59 76 68
f 59 131 129
f 59 70 131
f 45 76 72
f 71 72 76
f 71 76 67
f 70 78 132
f 70 132 131
f 78 133 132
f 80 85 79
f 80 81 111
f 79 85 82
f 83 86 87
f 85 112 86
f 81 105 107
f 105 106 108
f 106 109 108
f 106 129 139
f 106 110 109
f 106 139 110
f 85 111 112
f 111 107 113
f 107 108 113
f 109 113 108
f 86 112 116
f 116 117 118
f 115 118 142
f 118 117 142
f 112 113 116
f 113 121 116
f 116 124 117
f 116 123 124
f 109 120 113
f 109 125 120
f 110 126 125
f 113 120 121
f 116 121 123
f 121 120 125
f 121 125 122
f 125 126 127
f 129 131 140
f 131 132 141
f 133 141 132
f 133 137 141
f 129 140 139
f 131 141 140
f 115 142 143
f 117 155 142
f 143 142 144
f 144 142 156
f 117 145 155
f 156 142 155
f 145 160 155
f 156 155 157
f 155 160 157
f 156 157 160
f 145 148 160
f 110 139 166
f 139 140 166
f 110 166 126
f 140 168 166
f 140 178 168
f 168 178 167
f 140 141 182
f 137 182 141
f 137 173 182
f 140 182 178
f 173 181 182
f 167 178 181
f 178 182 181
f 21 83 24
f 54 55 58
f 55 59 58
f 24 83 84
f 83 87 84
f 84 87 88
f 87 114 88
f 117 128 119
f 117 124 128
f 124 127 128
f 126 128 127
f 37 42 41
f 42 44 41
f 62 66 63
f 63 66 67
f 145 149 148
f 148 149 151
f 166 168 171
f 168 167 171
f 167 170 171
f 68 69 70
f 43 91 90
f 90 91 92
f 91 101 92
f 92 101 102
f 101 143 102
f 102 143 144
f 150 169 152
f 152 169 172
f 1 2 4
f 1 8 2
f 2 14 6
f 6 14 3
f 4 6 5
f 1 4 17
f 4 5 17
f 4 2 6
f 6 3 7
f 6 7 5
f 1 17 8
f 8 9 14
f 8 17 9
f 8 14 2
f 14 11 3
f 14 12 11
f 14 13 12
f 14 9 16
f 14 15 13
f 14 16 15
f 17 5 18
f 17 18 9
